<svg width="27" height="30" viewBox="0 0 27 30" fill="none" xmlns="http://www.w3.org/2000/svg">
<path d="M13.0859 0C20.313 6.36024e-05 26.1719 5.85888 26.1719 13.0859C26.1718 20.3129 20.3129 26.1718 13.0859 26.1719H4.96387C10.5287 21.8097 8.42304 15.7934 5.71582 13.2363C8.7237 21.2078 3.3638 25.835 0 30V13.0859C0 5.85884 5.85884 0 13.0859 0ZM13.1504 6.09277C12.7828 9.20669 10.1283 11.7498 7.00391 12.0771C10.1205 12.7998 12.5861 15.0285 12.9062 18.1807C13.2799 15.0336 16.5163 12.4979 19.2939 12.168C16.1775 11.4453 13.4769 9.21169 13.1504 6.09277Z" fill="url(#paint0_linear_25_304)"/>
<defs>
<linearGradient id="paint0_linear_25_304" x1="8.35058" y1="21.0309" x2="26.1856" y2="1.64935" gradientUnits="userSpaceOnUse">
<stop stop-color="#510ED6"/>
<stop offset="1" stop-color="#973DFD"/>
</linearGradient>
</defs>
</svg>
