<svg width="135" height="30" viewBox="0 0 135 30" fill="none" xmlns="http://www.w3.org/2000/svg">
<path d="M13.0859 0C20.313 6.36024e-05 26.1719 5.85888 26.1719 13.0859C26.1718 20.3129 20.3129 26.1718 13.0859 26.1719H4.96387C10.5287 21.8097 8.42304 15.7934 5.71582 13.2363C8.7237 21.2078 3.3638 25.835 0 30V13.0859C0 5.85884 5.85884 0 13.0859 0ZM13.1504 6.09277C12.7828 9.20669 10.1283 11.7498 7.00391 12.0771C10.1205 12.7998 12.5861 15.0285 12.9062 18.1807C13.2799 15.0336 16.5163 12.4979 19.2939 12.168C16.1775 11.4453 13.4769 9.21169 13.1504 6.09277Z" fill="url(#paint0_linear_15_7)"/>
<path d="M130.799 6.46064H134.348L125.419 22.7925C124.809 23.9293 124.088 24.7612 123.312 25.288C122.508 25.8426 121.51 26.1198 120.29 26.1198H118.765V23.0975H120.012C121.288 23.0975 122.258 22.5152 122.924 21.3229L123.312 20.5742L115.881 6.46064H119.402L124.976 17.3855L130.799 6.46064Z" fill="#2F2F2F"/>
<path d="M115.092 20.9347H113.56C112.507 20.9347 111.654 20.0815 111.654 19.029V0H113.187C114.239 0 115.092 0.853211 115.092 1.9057V20.9347Z" fill="#2F2F2F"/>
<path d="M98.362 16.8587C99.1662 17.6628 100.192 18.051 101.44 18.051H109.342V20.907H101.495C100.386 20.907 99.3602 20.7406 98.4175 20.4079C97.447 20.0474 96.6152 19.5483 95.922 18.9105C95.2288 18.2728 94.7019 17.4687 94.3137 16.5814C93.9255 15.6664 93.7314 14.6959 93.7314 13.6699C93.7314 12.644 93.9255 11.6735 94.3137 10.7585C94.7019 9.87119 95.2288 9.0948 95.922 8.45706C96.6152 7.81931 97.447 7.34793 98.4175 6.98747C99.3602 6.65473 100.386 6.46064 101.495 6.46064H105.294C106.875 6.46064 108.067 6.87656 108.899 7.7084C109.703 8.54024 110.119 9.62164 110.119 10.9803C110.119 12.2281 109.731 13.1708 109.01 13.7808C108.261 14.3909 107.096 15.0841 105.516 15.0841H97.3361C97.5302 15.7773 97.8629 16.3596 98.362 16.8587ZM98.362 10.398C97.7797 10.9803 97.3916 11.7012 97.2529 12.5885H104.85C105.544 12.5885 106.043 12.4776 106.348 12.2281C106.68 11.9785 106.819 11.5626 106.819 11.008C106.819 9.788 106.154 9.17799 104.795 9.17799H101.44C100.192 9.17799 99.1662 9.59391 98.362 10.398Z" fill="#2F2F2F"/>
<path d="M93.546 6.46064C93.546 8.06858 92.2425 9.37208 90.6345 9.37208H86.5585V15.3613C86.5585 16.2209 86.8081 16.8864 87.2517 17.3578C87.7231 17.8291 88.3608 18.051 89.2204 18.051H93.4073V20.907H88.3886C86.6694 20.907 85.3662 20.4633 84.4789 19.5206C83.5916 18.6055 83.1479 17.3023 83.1479 15.6109V2.38461C85.0315 2.38461 86.5585 3.91157 86.5585 5.79516V6.46064H93.546Z" fill="#2F2F2F"/>
<path d="M81.1361 14.3354C81.6075 15.0286 81.8293 15.8327 81.8293 16.7478C81.8293 17.9955 81.4134 18.9937 80.5538 19.7701C79.722 20.5465 78.6406 20.9347 77.3096 20.9347H65.9689C65.9689 19.3421 67.2599 18.051 68.8526 18.051H76.6719C77.2265 18.051 77.6701 17.9123 78.0028 17.6628C78.3078 17.3855 78.4742 16.9973 78.4742 16.4705C78.4742 15.9714 78.3356 15.5832 78.0306 15.2782C77.6978 15.0009 77.2542 14.8622 76.6719 14.8622H70.2944C68.9358 14.8622 67.8266 14.4463 67.0225 13.6145C66.1907 12.7826 65.8025 11.7844 65.8025 10.5921C65.8025 10.1207 65.8579 9.67709 66.0243 9.20572C66.163 8.73434 66.4125 8.29069 66.8007 7.87477C67.1612 7.48657 67.6325 7.12611 68.2426 6.87656C68.8248 6.59928 69.5181 6.46064 70.2944 6.46064H81.1084C81.1084 8.06858 79.8049 9.37208 78.1969 9.37208H70.9045C70.3499 9.37208 69.9062 9.483 69.5735 9.76028C69.2408 10.0098 69.0744 10.398 69.0744 10.8971C69.0744 11.3685 69.2408 11.729 69.5458 12.0063C69.8785 12.2835 70.3222 12.4222 70.9045 12.4222H77.3096C78.0028 12.4222 78.696 12.5608 79.417 12.8381C80.1102 13.1154 80.6647 13.6145 81.1361 14.3354Z" fill="#2F2F2F"/>
<path d="M64.2933 10.7585C64.6815 11.6735 64.8756 12.6163 64.8756 13.6699C64.8756 14.6959 64.6815 15.6664 64.2933 16.5814C63.9051 17.4687 63.3506 18.2451 62.6574 18.9105C61.9642 19.5483 61.1323 20.0474 60.1896 20.4079C59.2191 20.7406 58.1931 20.907 57.1117 20.907H55.0876C53.9785 20.907 52.9525 20.7406 52.0098 20.4079C51.0393 20.0474 50.2075 19.5483 49.5142 18.9105C48.821 18.2451 48.2942 17.4687 47.906 16.5814C47.5178 15.6664 47.3237 14.6959 47.3237 13.6699C47.3237 12.6163 47.5178 11.6735 47.906 10.7585C48.2942 9.87119 48.821 9.0948 49.5142 8.45706C50.2075 7.81931 51.0393 7.34793 52.0098 6.98747C52.9525 6.65473 53.9785 6.46064 55.0876 6.46064H57.1117C58.1931 6.46064 59.2191 6.65473 60.1896 6.98747C61.1323 7.34793 61.9642 7.81931 62.6574 8.45706C63.3506 9.0948 63.9051 9.87119 64.2933 10.7585ZM60.1896 16.6091C60.9937 15.8327 61.4096 14.8622 61.4096 13.6699C61.4096 12.4776 60.9937 11.5349 60.1896 10.7585C59.3577 10.0098 58.3318 9.62164 57.1117 9.62164H55.0321C53.8121 9.62164 52.7862 10.0098 51.982 10.7585C51.1502 11.5349 50.7343 12.4776 50.7343 13.6699C50.7343 14.8622 51.1502 15.8327 51.982 16.6091C52.7862 17.3855 53.8121 17.746 55.0321 17.746H57.1117C58.3318 17.746 59.3577 17.3855 60.1896 16.6091Z" fill="#2F2F2F"/>
<path d="M41.3259 13.623C39.6815 13.8182 37.7653 15.3192 37.5441 17.1822C37.3546 15.3162 35.8951 13.9969 34.05 13.5691C35.8998 13.3754 37.4714 11.8697 37.6889 10.0261C37.8821 11.8727 39.4809 13.1952 41.3259 13.623Z" fill="#2F2F2F"/>
<path d="M45.9365 10.8417C46.3247 11.7844 46.5188 12.8381 46.5188 14.0304C46.5188 16.2209 45.8533 17.9401 44.4946 19.1878C43.1637 20.4356 41.195 21.0733 38.6717 21.0733C38.3667 21.0733 37.7567 21.0456 36.8417 20.9624C36.0376 20.907 33.6252 20.4079 32.4052 20.1306V22.6816C32.4052 24.5805 30.8658 26.1198 28.9669 26.1198V13.3649C28.9669 11.1467 29.5769 9.45527 30.797 8.26296C32.017 7.07065 33.8193 6.46064 36.1762 6.46064H38.7549C39.8363 6.46064 40.8623 6.627 41.8327 6.98747C42.7755 7.32021 43.6073 7.81931 44.3005 8.45706C44.9937 9.0948 45.5483 9.89892 45.9365 10.8417ZM38.3113 17.9401C41.4723 17.9401 43.0528 16.6091 43.0528 13.9472C43.0528 12.5331 42.6646 11.4794 41.8605 10.7585C41.0841 10.0376 40.0304 9.67709 38.7549 9.67709H36.2594C35.0116 9.67709 34.0689 9.9821 33.4034 10.6198C32.7379 11.2576 32.4052 12.1726 32.4052 13.3649V16.9696C33.4034 17.2191 35.4553 17.6628 36.1485 17.746C36.9526 17.8846 37.6735 17.9401 38.3113 17.9401Z" fill="#2F2F2F"/>
<defs>
<linearGradient id="paint0_linear_15_7" x1="8.35058" y1="21.0309" x2="26.1856" y2="1.64935" gradientUnits="userSpaceOnUse">
<stop stop-color="#510ED6"/>
<stop offset="1" stop-color="#973DFD"/>
</linearGradient>
</defs>
</svg>
