<svg width="135" height="30" viewBox="0 0 135 30" fill="none" xmlns="http://www.w3.org/2000/svg">
<path d="M13.0859 0C20.313 6.36024e-05 26.1719 5.85888 26.1719 13.0859C26.1718 20.3129 20.3129 26.1718 13.0859 26.1719H4.96387C10.5287 21.8097 8.42304 15.7934 5.71582 13.2363C8.7237 21.2078 3.3638 25.835 0 30V13.0859C0 5.85884 5.85884 0 13.0859 0ZM13.1504 6.09277C12.7828 9.20669 10.1283 11.7498 7.00391 12.0771C10.1205 12.7998 12.5861 15.0285 12.9062 18.1807C13.2799 15.0336 16.5163 12.4979 19.2939 12.168C16.1775 11.4453 13.4769 9.21169 13.1504 6.09277Z" fill="url(#paint0_linear_52_124)"/>
<path d="M130.799 6.46069H134.348L125.419 22.7925C124.809 23.9294 124.088 24.7612 123.312 25.2881C122.508 25.8426 121.51 26.1199 120.29 26.1199H118.765V23.0975H120.012C121.288 23.0975 122.258 22.5152 122.924 21.3229L123.312 20.5743L115.881 6.46069H119.402L124.976 17.3856L130.799 6.46069Z" fill="white"/>
<path d="M115.092 20.9347H113.56C112.507 20.9347 111.654 20.0815 111.654 19.029V0H113.186C114.239 0 115.092 0.853211 115.092 1.9057V20.9347Z" fill="white"/>
<path d="M98.362 16.8587C99.1662 17.6628 100.192 18.051 101.44 18.051H109.342V20.907H101.495C100.386 20.907 99.3602 20.7407 98.4175 20.4079C97.447 20.0474 96.6152 19.5483 95.922 18.9106C95.2288 18.2729 94.7019 17.4687 94.3137 16.5814C93.9255 15.6664 93.7314 14.6959 93.7314 13.67C93.7314 12.6441 93.9255 11.6736 94.3137 10.7585C94.7019 9.87125 95.2288 9.09486 95.922 8.45711C96.6152 7.81937 97.447 7.34799 98.4175 6.98753C99.3602 6.65479 100.386 6.46069 101.495 6.46069H105.294C106.875 6.46069 108.067 6.87661 108.899 7.70846C109.703 8.5403 110.119 9.62169 110.119 10.9804C110.119 12.2281 109.731 13.1709 109.01 13.7809C108.261 14.3909 107.096 15.0841 105.516 15.0841H97.3361C97.5302 15.7773 97.8629 16.3596 98.362 16.8587ZM98.362 10.3981C97.7797 10.9804 97.3916 11.7013 97.2529 12.5886H104.85C105.544 12.5886 106.043 12.4777 106.348 12.2281C106.68 11.9786 106.819 11.5627 106.819 11.0081C106.819 9.78806 106.154 9.17804 104.795 9.17804H101.44C100.192 9.17804 99.1662 9.59396 98.362 10.3981Z" fill="white"/>
<path d="M93.546 6.46055C93.546 8.0685 92.2425 9.372 90.6345 9.372H86.5585V15.3613C86.5585 16.2208 86.8081 16.8863 87.2517 17.3577C87.7231 17.8291 88.3608 18.0509 89.2204 18.0509H93.4073V20.9069H88.3886C86.6694 20.9069 85.3662 20.4632 84.4789 19.5205C83.5916 18.6054 83.1479 17.3022 83.1479 15.6108V2.38452C85.0315 2.38452 86.5585 3.91148 86.5585 5.79507V6.46055H93.546Z" fill="white"/>
<path d="M81.1359 14.3355C81.6072 15.0287 81.8291 15.8328 81.8291 16.7478C81.8291 17.9956 81.4131 18.9938 80.5536 19.7702C79.7217 20.5466 78.6403 20.9347 77.3094 20.9347H65.9686C65.9686 19.3421 67.2597 18.051 68.8523 18.051H76.6716C77.2262 18.051 77.6699 17.9124 78.0026 17.6628C78.3076 17.3856 78.474 16.9974 78.474 16.4705C78.474 15.9714 78.3353 15.5832 78.0303 15.2782C77.6976 15.0009 77.2539 14.8623 76.6716 14.8623H70.2942C68.9355 14.8623 67.8264 14.4464 67.0223 13.6145C66.1904 12.7827 65.8022 11.7845 65.8022 10.5922C65.8022 10.1208 65.8577 9.67715 66.0241 9.20577C66.1627 8.7344 66.4123 8.29075 66.8005 7.87482C67.1609 7.48663 67.6323 7.12617 68.2423 6.87661C68.8246 6.59933 69.5178 6.46069 70.2942 6.46069H81.1081C81.1081 8.06864 79.8046 9.37214 78.1967 9.37214H70.9042C70.3496 9.37214 69.906 9.48305 69.5733 9.76033C69.2405 10.0099 69.0742 10.3981 69.0742 10.8972C69.0742 11.3686 69.2405 11.729 69.5455 12.0063C69.8783 12.2836 70.3219 12.4222 70.9042 12.4222H77.3094C78.0026 12.4222 78.6958 12.5609 79.4167 12.8382C80.1099 13.1154 80.6645 13.6145 81.1359 14.3355Z" fill="white"/>
<path d="M64.2933 10.7585C64.6815 11.6736 64.8756 12.6163 64.8756 13.67C64.8756 14.6959 64.6815 15.6664 64.2933 16.5814C63.9051 17.4687 63.3506 18.2451 62.6574 18.9106C61.9642 19.5483 61.1323 20.0474 60.1896 20.4079C59.2191 20.7407 58.1931 20.907 57.1117 20.907H55.0876C53.9785 20.907 52.9525 20.7407 52.0098 20.4079C51.0393 20.0474 50.2075 19.5483 49.5142 18.9106C48.821 18.2451 48.2942 17.4687 47.906 16.5814C47.5178 15.6664 47.3237 14.6959 47.3237 13.67C47.3237 12.6163 47.5178 11.6736 47.906 10.7585C48.2942 9.87125 48.821 9.09486 49.5142 8.45711C50.2075 7.81937 51.0393 7.34799 52.0098 6.98753C52.9525 6.65479 53.9785 6.46069 55.0876 6.46069H57.1117C58.1931 6.46069 59.2191 6.65479 60.1896 6.98753C61.1323 7.34799 61.9642 7.81937 62.6574 8.45711C63.3506 9.09486 63.9051 9.87125 64.2933 10.7585ZM60.1896 16.6092C60.9937 15.8328 61.4096 14.8623 61.4096 13.67C61.4096 12.4777 60.9937 11.5349 60.1896 10.7585C59.3577 10.0099 58.3318 9.62169 57.1117 9.62169H55.0321C53.8121 9.62169 52.7862 10.0099 51.982 10.7585C51.1502 11.5349 50.7343 12.4777 50.7343 13.67C50.7343 14.8623 51.1502 15.8328 51.982 16.6092C52.7862 17.3856 53.8121 17.746 55.0321 17.746H57.1117C58.3318 17.746 59.3577 17.3856 60.1896 16.6092Z" fill="white"/>
<path d="M41.3258 13.623C39.6814 13.8182 37.7652 15.3192 37.544 17.1823C37.3545 15.3162 35.895 13.997 34.0499 13.5692C35.8997 13.3755 37.4712 11.8698 37.6887 10.0262C37.8819 11.8728 39.4808 13.1952 41.3258 13.623Z" fill="white"/>
<path d="M45.9364 10.8417C46.3246 11.7845 46.5187 12.8382 46.5187 14.0305C46.5187 16.221 45.8532 17.9401 44.4945 19.1879C43.1636 20.4356 41.1949 21.0734 38.6716 21.0734C38.3666 21.0734 37.7566 21.0457 36.8416 20.9625C36.0375 20.907 33.6251 20.4079 32.4051 20.1306V22.6816C32.4051 24.5805 30.8657 26.1199 28.9668 26.1199V13.365C28.9668 11.1467 29.5768 9.45532 30.7968 8.26302C32.0169 7.07071 33.8192 6.46069 36.1761 6.46069H38.7548C39.8362 6.46069 40.8621 6.62706 41.8326 6.98753C42.7754 7.32026 43.6072 7.81937 44.3004 8.45711C44.9936 9.09486 45.5482 9.89897 45.9364 10.8417ZM38.3112 17.9401C41.4722 17.9401 43.0527 16.6092 43.0527 13.9473C43.0527 12.5331 42.6645 11.4795 41.8604 10.7585C41.084 10.0376 40.0303 9.67715 38.7548 9.67715H36.2593C35.0115 9.67715 34.0688 9.98216 33.4033 10.6199C32.7378 11.2576 32.4051 12.1727 32.4051 13.365V16.9696C33.4033 17.2192 35.4552 17.6628 36.1484 17.746C36.9525 17.8847 37.6734 17.9401 38.3112 17.9401Z" fill="white"/>
<defs>
<linearGradient id="paint0_linear_52_124" x1="8.35058" y1="21.0309" x2="26.1856" y2="1.64935" gradientUnits="userSpaceOnUse">
<stop stop-color="#510ED6"/>
<stop offset="1" stop-color="#973DFD"/>
</linearGradient>
</defs>
</svg>
